{"glyphs":{":":{"x_min":0,"x_max":232,"ha":232,"o":"m 71 418 l 161 418 l 161 520 l 71 520 z m 71 0 l 161 0 l 161 103 l 71 103 z"},"$":{"x_min":0,"x_max":547,"ha":547,"o":"m 477 626 b 426 669 372 694 306 700 l 306 761 l 248 761 l 248 701 b 139 691 65 618 65 520 l 65 519 b 65 420 123 367 250 324 l 250 65 b 187 72 135 101 85 149 l 41 93 b 101 36 172 6 248 0 l 248 -99 l 306 -99 l 306 0 b 417 10 492 83 492 185 l 492 186 b 492 282 439 340 304 385 l 304 634 b 350 627 394 605 435 570 z m 420 183 l 420 182 b 420 120 377 72 304 64 l 304 308 b 394 277 420 239 420 183 z m 138 524 l 138 525 b 138 582 180 628 250 636 l 250 402 b 164 434 138 467 138 524 z"},"?":{"x_min":0,"x_max":467,"ha":467,"o":"m 185 196 l 233 196 l 243 315 b 344 336 427 397 427 515 l 427 518 b 427 627 345 708 223 708 b 135 708 74 669 23 614 l 68 564 b 108 608 157 640 219 640 b 299 640 351 587 351 515 l 351 513 b 351 429 289 377 177 367 l 172 362 z m 165 0 l 254 0 l 254 103 l 165 103 z"},"<":{"x_min":0,"x_max":542,"ha":542,"o":"m 464 108 l 464 186 l 135 353 l 464 519 l 464 596 l 56 384 l 56 320 z"},"'":{"x_min":0,"x_max":211,"ha":211,"o":"m 59 431 l 96 431 l 166 694 l 166 700 l 80 700 z"},"=":{"x_min":0,"x_max":542,"ha":542,"o":"m 65 421 l 477 421 l 477 492 l 65 492 z m 65 212 l 477 212 l 477 283 l 65 283 z"},"a":{"x_min":0,"x_max":503,"ha":503,"o":"m 207 -11 b 284 -11 335 27 366 76 l 366 0 l 437 0 l 437 335 b 437 396 419 444 387 476 b 353 510 304 528 241 528 b 177 528 126 510 77 486 l 100 427 b 136 446 181 462 233 462 b 317 462 366 417 366 333 l 366 302 b 327 314 287 323 232 323 b 117 323 40 262 40 155 l 40 151 b 40 48 120 -11 207 -11 z m 223 49 b 161 49 112 90 112 155 l 112 158 b 112 224 158 267 241 267 b 292 267 334 258 367 246 l 367 181 b 367 105 303 48 223 49 z"},"L":{"x_min":0,"x_max":519,"ha":519,"o":"m 84 0 l 484 0 l 484 69 l 159 69 l 159 700 l 84 700 z"},"3":{"x_min":0,"x_max":523,"ha":523,"o":"m 250 -11 b 371 -11 468 74 468 201 l 468 204 b 468 327 371 385 263 397 l 459 644 l 459 700 l 66 700 l 66 631 l 363 631 l 169 384 l 180 337 l 206 337 b 315 337 392 291 392 201 l 392 198 b 392 113 329 58 250 58 b 178 58 127 89 85 137 l 37 85 b 85 29 156 -11 250 -11 z"},";":{"x_min":0,"x_max":232,"ha":232,"o":"m 71 418 l 161 418 l 161 520 l 71 520 z m 55 -121 b 128 -102 161 -64 161 15 l 161 103 l 71 103 l 71 0 l 108 0 b 111 -42 92 -69 43 -87 z"},"J":{"x_min":0,"x_max":461,"ha":461,"o":"m 198 -9 b 252 -9 297 8 331 42 b 366 77 386 130 386 202 l 386 700 l 311 700 l 311 202 b 311 108 264 61 199 61 b 145 61 109 86 75 137 l 23 90 b 60 31 118 -9 198 -9 z"},"V":{"x_min":0,"x_max":640,"ha":640,"o":"m 286 -5 l 355 -5 l 607 700 l 528 700 l 321 104 l 115 700 l 33 700 z"},"\"":{"x_min":0,"x_max":386,"ha":386,"o":"m 232 431 l 268 431 l 338 694 l 338 700 l 253 700 z m 59 431 l 96 431 l 166 694 l 166 700 l 80 700 z"},"7":{"x_min":0,"x_max":512,"ha":512,"o":"m 114 0 l 195 0 l 465 643 l 465 700 l 56 700 l 56 630 l 384 630 z"},"S":{"x_min":0,"x_max":547,"ha":547,"o":"m 280 -10 b 405 -10 497 69 497 181 l 497 183 b 497 276 445 333 303 386 b 171 434 140 469 140 530 l 140 532 b 140 592 192 641 272 641 b 333 641 388 618 440 573 l 485 631 b 423 685 356 710 275 710 b 152 710 64 630 64 525 l 64 523 b 64 424 121 372 266 318 b 393 273 421 236 421 178 l 421 177 b 421 110 365 59 281 59 b 202 59 142 92 84 146 l 37 89 b 110 21 190 -10 280 -10 z"},"}":{"x_min":0,"x_max":421,"ha":421,"o":"m 54 -140 b 213 -115 252 -52 252 39 b 252 71 241 116 241 149 b 241 216 269 260 353 260 l 375 260 l 375 315 l 353 315 b 269 315 241 360 241 427 b 241 459 252 504 252 536 b 252 627 213 690 54 715 l 44 666 b 161 641 183 606 183 528 b 183 493 171 457 171 422 b 171 347 207 306 275 288 b 208 270 171 228 171 153 b 171 118 183 82 183 47 b 183 -31 161 -65 44 -91 z"},"Z":{"x_min":0,"x_max":585,"ha":585,"o":"m 55 0 l 532 0 l 532 68 l 152 68 l 532 649 l 532 700 l 69 700 l 69 632 l 435 632 l 55 51 z"},"x":{"x_min":0,"x_max":498,"ha":498,"o":"m 122 521 l 41 521 l 206 266 l 34 0 l 113 0 l 248 215 l 383 0 l 464 0 l 290 268 l 456 521 l 378 521 l 249 318 z"},")":{"x_min":0,"x_max":379,"ha":379,"o":"m 71 -138 b 229 -48 320 97 320 288 b 320 479 229 624 71 714 l 42 667 b 174 579 247 457 247 288 b 247 119 174 -3 42 -91 z"},"&":{"x_min":0,"x_max":611,"ha":611,"o":"m 529 -12 l 586 29 l 481 151 b 513 202 540 262 565 330 l 504 355 b 483 297 462 247 436 203 l 295 373 b 386 416 443 472 443 557 l 443 560 b 443 642 380 711 288 711 b 187 711 121 639 121 554 l 121 551 b 121 497 142 453 190 391 b 93 342 38 272 38 183 l 38 180 b 38 70 122 -9 236 -9 b 319 -9 383 30 437 94 z m 256 418 b 207 478 191 512 191 552 l 191 554 b 191 607 230 649 286 649 b 337 649 374 609 374 556 l 374 555 b 374 497 335 453 256 418 z m 242 55 b 166 55 114 111 114 184 l 114 187 b 114 245 148 304 229 343 l 395 143 b 352 89 302 55 242 55 z"},"_":{"x_min":0,"x_max":555,"ha":555,"o":"m -2 -159 l 557 -159 l 557 -99 l -2 -99 z"},"v":{"x_min":0,"x_max":510,"ha":510,"o":"m 223 -4 l 288 -4 l 479 521 l 403 521 l 255 93 l 109 521 l 31 521 z"},"O":{"x_min":0,"x_max":716,"ha":716,"o":"m 358 -11 b 536 -11 659 141 659 347 l 659 355 b 659 560 537 711 359 711 b 181 711 57 559 57 353 l 57 345 b 57 140 179 -11 358 -11 z m 359 58 b 230 58 135 178 135 347 l 135 354 b 135 523 229 642 358 642 b 487 642 582 522 582 353 l 582 346 b 582 177 488 58 359 58 z"},"(":{"x_min":0,"x_max":379,"ha":379,"o":"m 308 -138 l 337 -91 b 204 -3 132 119 132 288 b 132 457 204 579 337 667 l 308 714 b 150 624 58 479 58 288 b 58 97 150 -48 308 -138 z"},"C":{"x_min":0,"x_max":615,"ha":615,"o":"m 359 -10 b 455 -10 522 28 581 86 l 536 138 b 486 90 435 60 363 60 b 234 60 135 177 135 349 l 135 353 b 135 522 234 640 363 640 b 434 640 487 609 531 567 l 577 624 b 522 675 460 710 364 710 b 189 710 57 564 57 352 l 57 346 b 57 133 186 -10 359 -10 z"},"W":{"x_min":0,"x_max":956,"ha":956,"o":"m 248 -5 l 314 -5 l 478 560 l 642 -5 l 708 -5 l 917 700 l 840 700 l 675 124 l 511 702 l 447 702 l 284 124 l 119 700 l 38 700 z"},"A":{"x_min":0,"x_max":674,"ha":674,"o":"m 33 0 l 110 0 l 178 184 l 493 184 l 561 0 l 641 0 l 374 704 l 300 704 z m 203 252 l 336 607 l 468 252 z"},"f":{"x_min":0,"x_max":319,"ha":319,"o":"m 99 0 l 172 0 l 172 457 l 307 457 l 307 520 l 171 520 l 171 564 b 171 630 198 662 250 662 b 270 662 288 658 309 652 l 309 716 b 289 722 268 726 240 726 b 197 726 163 713 139 689 b 114 663 99 622 99 568 l 99 520 l 35 520 l 35 457 l 99 457 z"},"Q":{"x_min":0,"x_max":717,"ha":717,"o":"m 670 32 l 586 106 b 632 169 659 252 659 347 l 659 355 b 659 560 537 711 359 711 b 181 711 57 559 57 353 l 57 345 b 57 140 179 -11 358 -11 b 429 -11 491 14 540 56 l 620 -20 z m 360 58 b 230 58 135 177 135 347 l 135 354 b 135 523 229 642 358 642 b 487 642 582 522 582 353 l 582 346 b 582 270 564 205 533 156 l 426 258 l 377 206 l 489 105 b 453 75 409 58 360 58 z"},"w":{"x_min":0,"x_max":753,"ha":753,"o":"m 193 -4 l 258 -4 l 377 402 l 495 -4 l 560 -4 l 716 521 l 643 521 l 527 106 l 408 522 l 347 522 l 228 106 l 113 521 l 37 521 z"},"-":{"x_min":0,"x_max":371,"ha":371,"o":"m 57 263 l 314 263 l 314 338 l 57 338 z"},"E":{"x_min":0,"x_max":566,"ha":566,"o":"m 84 0 l 516 0 l 516 69 l 159 69 l 159 319 l 475 319 l 475 387 l 159 387 l 159 631 l 511 631 l 511 700 l 84 700 z"},"s":{"x_min":0,"x_max":428,"ha":428,"o":"m 215 -9 b 309 -9 384 48 384 141 l 384 143 b 384 222 324 258 238 296 b 167 326 122 348 122 392 l 122 394 b 122 435 157 467 212 467 b 258 467 303 447 343 418 l 378 473 b 334 506 273 529 214 529 b 121 529 52 472 52 387 l 52 385 b 52 304 118 271 201 235 b 271 206 314 182 314 136 l 314 135 b 314 86 274 54 217 54 b 165 54 114 76 65 117 l 27 64 b 82 16 151 -9 215 -9 z"},">":{"x_min":0,"x_max":542,"ha":542,"o":"m 78 108 l 486 320 l 486 384 l 78 596 l 78 518 l 408 351 l 78 185 z"},"l":{"x_min":0,"x_max":232,"ha":232,"o":"m 80 0 l 152 0 l 152 722 l 80 722 z"},"8":{"x_min":0,"x_max":545,"ha":545,"o":"m 272 -10 b 403 -10 501 69 501 187 l 501 190 b 501 273 447 332 374 362 b 433 391 480 443 480 523 l 480 526 b 480 636 385 710 272 710 b 160 710 64 636 64 526 l 64 523 b 64 443 112 391 171 362 b 96 333 44 273 44 189 l 44 186 b 44 70 142 -10 272 -10 z m 272 390 b 197 390 138 445 138 520 l 138 522 b 138 595 196 645 272 645 b 349 645 407 594 407 522 l 407 520 b 407 445 348 390 272 390 z m 272 55 b 177 55 119 115 119 189 l 119 191 b 119 271 186 328 272 328 b 358 328 426 271 426 191 l 426 189 b 426 114 368 55 272 55 z"},"\\":{"x_min":0,"x_max":437,"ha":437,"o":"m 387 -119 l 453 -119 l 63 789 l -3 789 z"},"e":{"x_min":0,"x_max":512,"ha":512,"o":"m 277 -11 b 355 -11 409 19 456 67 l 415 113 b 379 77 337 53 280 53 b 198 53 127 117 119 232 l 469 232 b 470 241 470 255 470 262 b 470 419 392 531 261 531 b 139 531 46 420 46 261 l 46 256 b 46 91 150 -11 277 -11 z m 119 288 b 126 397 184 468 261 468 b 346 468 393 387 398 288 z"},"b":{"x_min":0,"x_max":571,"ha":571,"o":"m 315 -10 b 421 -10 523 83 523 256 l 523 266 b 523 439 421 531 315 531 b 233 531 181 480 146 421 l 146 722 l 74 722 l 74 0 l 146 0 l 146 97 b 180 40 232 -10 315 -10 z m 301 55 b 219 55 143 133 143 255 l 143 265 b 143 387 219 466 301 466 b 381 466 449 391 449 264 l 449 256 b 449 128 383 55 301 55 z"},"%":{"x_min":0,"x_max":738,"ha":738,"o":"m 186 354 b 270 354 329 430 329 529 l 329 534 b 329 631 271 707 187 707 b 103 707 44 631 44 532 l 44 527 b 44 430 102 354 186 354 z m 186 653 b 232 653 268 603 268 532 l 268 528 b 268 458 235 408 187 408 b 142 408 106 457 106 529 l 106 533 b 106 602 138 653 186 653 z m 347 363 l 111 0 l 175 0 l 390 336 l 628 700 l 564 700 z m 551 -7 b 635 -7 694 69 694 168 l 694 173 b 694 270 636 346 552 346 b 468 346 409 270 409 171 l 409 166 b 409 69 467 -7 551 -7 z m 552 47 b 506 47 470 96 470 168 l 470 172 b 470 241 503 292 551 292 b 597 292 633 242 633 171 l 633 167 b 633 97 600 47 552 47 z"},"m":{"x_min":0,"x_max":831,"ha":831,"o":"m 74 0 l 146 0 l 146 317 b 146 405 199 466 269 466 b 340 466 382 415 382 322 l 382 0 l 454 0 l 454 318 b 454 412 509 466 577 466 b 648 466 690 416 690 321 l 690 0 l 762 0 l 762 340 b 762 461 697 531 596 531 b 516 531 468 487 436 436 b 411 493 362 531 292 531 b 217 531 175 487 146 438 l 146 521 l 74 521 z"},"#":{"x_min":0,"x_max":605,"ha":605,"o":"m 534 243 l 431 243 l 462 460 l 566 460 l 566 526 l 472 526 l 497 700 l 433 700 l 408 526 l 246 526 l 271 700 l 208 700 l 183 526 l 70 526 l 70 460 l 173 460 l 142 243 l 37 243 l 37 177 l 132 177 l 107 0 l 171 0 l 196 177 l 358 177 l 333 0 l 396 0 l 421 177 l 534 177 z m 236 461 l 400 461 l 368 243 l 204 243 z"},",":{"x_min":0,"x_max":222,"ha":222,"o":"m 50 -121 b 123 -102 156 -64 156 15 l 156 103 l 66 103 l 66 0 l 103 0 b 106 -42 87 -69 38 -87 z"},"n":{"x_min":0,"x_max":537,"ha":537,"o":"m 74 0 l 146 0 l 146 317 b 146 406 202 466 278 466 b 354 466 398 414 398 321 l 398 0 l 470 0 l 470 341 b 470 458 406 531 300 531 b 222 531 175 488 146 436 l 146 521 l 74 521 z"},"h":{"x_min":0,"x_max":537,"ha":537,"o":"m 74 0 l 146 0 l 146 317 b 146 406 202 466 278 466 b 354 466 398 414 398 321 l 398 0 l 470 0 l 470 341 b 470 458 406 531 300 531 b 222 531 175 488 146 436 l 146 722 l 74 722 z"},"z":{"x_min":0,"x_max":470,"ha":470,"o":"m 45 0 l 425 0 l 425 62 l 137 62 l 426 474 l 426 521 l 56 521 l 56 459 l 334 459 l 45 47 z"},"B":{"x_min":0,"x_max":618,"ha":618,"o":"m 84 0 l 326 0 b 473 0 570 70 570 189 l 570 192 b 570 287 507 336 425 360 b 483 383 540 430 540 523 l 540 525 b 540 572 523 611 494 640 b 455 679 395 700 321 700 l 84 700 z m 464 513 b 464 432 403 386 310 386 l 159 386 l 159 632 l 317 632 b 410 632 464 587 464 515 z m 494 196 l 494 194 b 494 114 430 68 329 68 l 159 68 l 159 320 l 320 320 b 433 320 494 274 494 196 z"},"K":{"x_min":0,"x_max":616,"ha":616,"o":"m 84 0 l 159 0 l 159 196 l 277 333 l 507 0 l 598 0 l 329 394 l 584 700 l 491 700 l 159 296 l 159 700 l 84 700 z"},"R":{"x_min":0,"x_max":621,"ha":621,"o":"m 84 0 l 159 0 l 159 272 l 318 272 l 494 0 l 584 0 l 396 287 b 493 311 562 378 562 489 l 562 491 b 562 550 542 600 507 635 b 467 676 403 700 323 700 l 84 700 z m 159 340 l 159 631 l 318 631 b 423 631 487 580 487 488 l 487 486 b 487 397 424 340 310 340 z"},"T":{"x_min":0,"x_max":544,"ha":544,"o":"m 234 0 l 309 0 l 309 630 l 506 630 l 506 700 l 38 700 l 38 630 l 234 630 z"},"P":{"x_min":0,"x_max":577,"ha":577,"o":"m 84 0 l 159 0 l 159 247 l 286 247 b 429 248 541 328 541 476 l 541 478 b 541 616 444 700 295 700 l 84 700 z m 159 315 l 159 631 l 291 631 b 397 631 465 577 465 475 l 465 474 b 465 378 397 315 288 315 z"},"|":{"x_min":0,"x_max":280,"ha":280,"o":"m 110 -119 l 170 -119 l 170 789 l 110 789 z"},"t":{"x_min":0,"x_max":347,"ha":347,"o":"m 227 -8 b 257 -8 282 -1 305 10 l 305 72 b 284 63 264 58 244 58 b 199 58 169 78 169 133 l 169 457 l 305 457 l 305 521 l 169 521 l 169 673 l 97 673 l 97 521 l 34 521 l 34 457 l 97 457 l 97 121 b 97 28 153 -8 227 -8 z"},"M":{"x_min":0,"x_max":751,"ha":751,"o":"m 84 0 l 157 0 l 157 564 l 373 190 l 376 190 l 592 564 l 592 0 l 667 0 l 667 700 l 589 700 l 375 325 l 162 700 l 84 700 z"},"g":{"x_min":0,"x_max":571,"ha":571,"o":"m 267 -152 b 341 -152 400 -132 440 -92 b 477 -55 497 -2 497 69 l 497 521 l 425 521 l 425 428 b 390 483 337 531 254 531 b 148 531 48 442 48 285 l 48 281 b 48 124 147 36 253 36 b 336 36 389 85 425 143 l 425 67 b 425 -37 364 -89 266 -89 b 206 -89 147 -70 98 -38 l 69 -96 b 130 -134 197 -152 267 -152 z m 270 101 b 189 101 122 170 122 283 l 122 285 b 122 399 188 466 270 466 b 350 466 427 397 427 285 l 427 282 b 427 171 350 101 270 101 z"},"j":{"x_min":0,"x_max":234,"ha":234,"o":"m 78 628 l 158 628 l 158 713 l 78 713 z m 34 -153 b 113 -153 154 -107 154 -24 l 154 521 l 82 521 l 82 -19 b 82 -66 62 -91 22 -91 b 13 -91 1 -90 -9 -88 l -9 -148 b 5 -151 17 -153 34 -153 z"},"i":{"x_min":0,"x_max":232,"ha":232,"o":"m 76 628 l 156 628 l 156 713 l 76 713 z m 80 0 l 152 0 l 152 521 l 80 521 z"},"y":{"x_min":0,"x_max":513,"ha":513,"o":"m 264 92 l 108 521 l 30 521 l 230 0 b 204 -67 179 -89 140 -89 b 114 -89 92 -81 72 -70 l 50 -130 b 80 -146 111 -154 144 -154 b 214 -154 259 -117 296 -9 l 481 521 l 404 521 z"},"@":{"x_min":0,"x_max":875,"ha":875,"o":"m 438 -153 b 532 -153 604 -129 674 -87 l 657 -60 b 590 -100 527 -121 439 -121 b 230 -121 81 37 81 256 b 81 478 233 678 450 678 b 652 678 793 514 793 340 b 793 201 731 109 661 109 b 616 109 591 137 591 181 b 591 196 593 218 598 244 l 640 480 l 577 490 l 563 419 b 544 464 506 504 437 504 b 331 504 229 384 229 238 b 229 135 296 71 379 71 b 447 71 493 111 529 160 b 541 108 583 71 651 71 b 744 71 828 172 828 340 b 828 539 668 711 450 711 b 218 711 47 500 47 256 b 47 19 215 -153 438 -153 z m 395 129 b 337 129 296 169 296 243 b 296 302 319 367 356 404 b 381 429 412 444 444 444 b 502 444 545 396 545 327 b 545 266 518 204 483 169 b 459 145 427 129 395 129 z"},".":{"x_min":0,"x_max":222,"ha":222,"o":"m 66 0 l 156 0 l 156 103 l 66 103 z"},"p":{"x_min":0,"x_max":571,"ha":571,"o":"m 74 -150 l 146 -150 l 146 97 b 180 40 232 -10 315 -10 b 421 -10 523 83 523 256 l 523 266 b 523 439 421 531 315 531 b 233 531 181 480 146 421 l 146 521 l 74 521 z m 301 55 b 219 55 143 133 143 255 l 143 265 b 143 387 219 466 301 466 b 381 466 449 391 449 264 l 449 256 b 449 128 383 55 301 55 z"},"X":{"x_min":0,"x_max":616,"ha":616,"o":"m 484 700 l 308 415 l 134 700 l 47 700 l 263 358 l 37 0 l 121 0 l 307 302 l 493 0 l 579 0 l 353 360 l 568 700 z"},"*":{"x_min":0,"x_max":386,"ha":386,"o":"m 167 404 l 219 404 l 208 527 l 304 457 l 331 502 l 221 553 l 331 605 l 304 650 l 208 580 l 219 702 l 167 702 l 178 580 l 81 650 l 55 605 l 164 553 l 55 502 l 81 457 l 178 527 z"},"Y":{"x_min":0,"x_max":608,"ha":608,"o":"m 266 0 l 342 0 l 342 284 l 588 700 l 503 700 l 305 358 l 107 700 l 20 700 l 266 282 z"},"c":{"x_min":0,"x_max":477,"ha":477,"o":"m 276 -11 b 353 -11 405 23 444 67 l 402 115 b 369 81 331 55 280 55 b 192 55 120 134 120 257 l 120 262 b 120 383 190 465 277 465 b 331 465 368 437 399 406 l 442 460 b 402 500 352 531 278 531 b 148 531 46 420 46 262 l 46 255 b 46 97 145 -11 276 -11 z"},"!":{"x_min":0,"x_max":250,"ha":250,"o":"m 105 196 l 145 196 l 168 644 l 168 700 l 82 700 l 82 644 z m 80 0 l 169 0 l 169 103 l 80 103 z"},"/":{"x_min":0,"x_max":437,"ha":437,"o":"m -16 -119 l 50 -119 l 439 789 l 374 789 z"},"[":{"x_min":0,"x_max":386,"ha":386,"o":"m 88 -130 l 334 -130 l 334 -74 l 156 -74 l 156 644 l 334 644 l 334 700 l 88 700 z"},"6":{"x_min":0,"x_max":562,"ha":562,"o":"m 289 -11 b 413 -11 510 86 510 222 l 510 224 b 510 360 412 438 299 438 b 224 438 166 402 129 343 b 130 514 194 642 310 642 b 363 642 404 620 442 588 l 482 648 b 431 688 380 711 313 711 b 153 711 54 562 54 330 l 54 322 b 54 174 84 101 135 49 b 173 11 226 -11 289 -11 z m 290 56 b 200 56 140 126 140 218 l 140 220 b 140 307 202 373 289 373 b 374 373 434 313 434 221 l 434 219 b 434 128 378 56 290 56 z"},"r":{"x_min":0,"x_max":351,"ha":351,"o":"m 74 0 l 146 0 l 146 248 b 146 382 224 450 321 450 l 325 450 l 325 528 b 240 532 177 479 146 406 l 146 521 l 74 521 z"},"2":{"x_min":0,"x_max":520,"ha":520,"o":"m 42 0 l 467 0 l 467 70 l 146 70 l 321 268 b 419 371 462 430 462 520 l 462 523 b 462 633 379 710 265 710 b 165 710 101 663 49 585 l 101 541 b 148 607 194 641 258 641 b 328 641 384 593 384 516 b 384 451 352 400 268 310 l 42 58 z"},"{":{"x_min":0,"x_max":421,"ha":421,"o":"m 366 -140 l 377 -91 b 260 -65 238 -31 238 47 b 238 82 250 118 250 153 b 250 228 214 269 146 288 b 213 305 250 347 250 422 b 250 457 238 493 238 528 b 238 606 260 641 377 666 l 366 715 b 208 690 168 627 168 536 b 168 504 180 459 180 427 b 180 360 152 315 67 315 l 45 315 l 45 260 l 67 260 b 152 260 180 216 180 149 b 180 116 168 71 168 39 b 168 -52 208 -115 366 -140 z"},"9":{"x_min":0,"x_max":562,"ha":562,"o":"m 251 58 b 198 58 155 80 110 118 l 71 58 b 123 16 178 -11 249 -11 b 404 -11 508 132 508 370 l 508 378 b 508 524 476 601 427 650 b 389 689 338 711 273 711 b 146 711 52 610 52 474 l 52 472 b 52 337 144 255 264 255 b 338 255 396 292 433 352 b 432 187 366 58 251 58 z m 273 319 b 188 319 128 380 128 475 l 128 477 b 128 569 182 644 271 644 b 363 644 422 573 422 479 l 422 477 b 422 387 361 319 273 319 z"}," ":{"x_min":0,"x_max":259,"ha":259,"o":""},"I":{"x_min":0,"x_max":256,"ha":256,"o":"m 91 0 l 166 0 l 166 700 l 91 700 z"},"H":{"x_min":0,"x_max":656,"ha":656,"o":"m 84 0 l 159 0 l 159 317 l 497 317 l 497 0 l 572 0 l 572 700 l 497 700 l 497 387 l 159 387 l 159 700 l 84 700 z"},"4":{"x_min":0,"x_max":576,"ha":576,"o":"m 370 0 l 441 0 l 441 162 l 534 162 l 534 225 l 441 225 l 441 705 l 375 705 l 35 217 l 49 162 l 370 162 z m 120 225 l 370 587 l 370 225 z"},"~":{"x_min":0,"x_max":425,"ha":425,"o":"m 275 248 b 317 248 343 277 361 347 l 317 359 b 304 325 293 311 271 311 b 256 311 237 320 216 331 b 194 343 173 353 150 353 b 108 353 82 324 65 254 l 109 242 b 122 276 132 291 154 291 b 169 291 188 281 209 270 b 231 258 252 248 275 248 z"},"D":{"x_min":0,"x_max":668,"ha":668,"o":"m 84 0 l 282 0 b 477 0 611 142 611 347 l 611 354 b 611 560 477 700 282 700 l 84 700 z m 280 631 b 433 631 533 519 533 353 l 533 346 b 533 180 433 69 280 69 l 159 69 l 159 631 z"},"^":{"x_min":0,"x_max":455,"ha":455,"o":"m 69 503 l 130 503 l 227 643 l 323 503 l 386 503 l 256 698 l 199 698 z"},"0":{"x_min":0,"x_max":615,"ha":615,"o":"m 307 -11 b 462 -11 561 137 561 347 l 561 355 b 561 565 463 711 308 711 b 153 711 54 563 54 353 l 54 345 b 54 135 151 -11 307 -11 z m 308 57 b 201 57 131 179 131 347 l 131 355 b 131 523 200 643 307 643 b 413 643 484 521 484 353 l 484 345 b 484 177 415 57 308 57 z"},"F":{"x_min":0,"x_max":550,"ha":550,"o":"m 84 0 l 159 0 l 159 308 l 470 308 l 470 377 l 159 377 l 159 631 l 507 631 l 507 700 l 84 700 z"},"`":{"x_min":0,"x_max":500,"ha":500,"o":"m 262 589 l 317 589 l 231 729 l 157 694 z"},"k":{"x_min":0,"x_max":493,"ha":493,"o":"m 74 0 l 146 0 l 146 144 l 232 245 l 386 0 l 471 0 l 281 302 l 464 521 l 377 521 l 146 237 l 146 722 l 74 722 z"},"u":{"x_min":0,"x_max":537,"ha":537,"o":"m 237 -10 b 315 -10 362 33 391 85 l 391 0 l 463 0 l 463 521 l 391 521 l 391 203 b 391 114 335 55 259 55 b 183 55 139 107 139 200 l 139 521 l 67 521 l 67 179 b 67 63 131 -10 237 -10 z"},"]":{"x_min":0,"x_max":386,"ha":386,"o":"m 51 -130 l 298 -130 l 298 700 l 51 700 l 51 644 l 229 644 l 229 -74 l 51 -74 z"},"U":{"x_min":0,"x_max":654,"ha":654,"o":"m 326 -11 b 477 -11 578 85 578 265 l 578 700 l 503 700 l 503 260 b 503 127 435 58 328 58 b 218 58 151 131 151 263 l 151 700 l 76 700 l 76 261 b 76 85 177 -11 326 -11 z"},"o":{"x_min":0,"x_max":555,"ha":555,"o":"m 277 -11 b 411 -11 509 106 509 258 l 509 264 b 509 416 412 531 278 531 b 144 531 46 415 46 263 l 46 256 b 46 104 143 -11 277 -11 z m 278 54 b 189 54 120 141 120 258 l 120 263 b 120 379 185 466 277 466 b 366 466 436 379 436 262 l 436 257 b 436 142 370 54 278 54 z"},"N":{"x_min":0,"x_max":679,"ha":679,"o":"m 84 0 l 157 0 l 157 564 l 532 0 l 595 0 l 595 700 l 521 700 l 521 149 l 155 700 l 84 700 z"},"+":{"x_min":0,"x_max":542,"ha":542,"o":"m 236 137 l 306 137 l 306 318 l 486 318 l 486 386 l 306 386 l 306 567 l 236 567 l 236 386 l 56 386 l 56 318 l 236 318 z"},"G":{"x_min":0,"x_max":667,"ha":667,"o":"m 371 -10 b 464 -10 543 28 597 72 l 597 372 l 350 372 l 350 305 l 525 305 l 525 108 b 489 80 434 58 374 58 b 230 58 135 172 135 348 l 135 353 b 135 520 234 640 367 640 b 443 640 493 613 536 575 l 581 635 b 521 684 460 710 369 710 b 185 710 57 556 57 353 l 57 346 b 57 135 180 -10 371 -10 z"},"q":{"x_min":0,"x_max":571,"ha":571,"o":"m 425 -150 l 497 -150 l 497 521 l 425 521 l 425 424 b 391 481 339 531 256 531 b 150 531 48 438 48 265 l 48 255 b 48 81 150 -10 256 -10 b 338 -10 390 41 425 100 z m 271 55 b 190 55 122 130 122 257 l 122 265 b 122 393 188 466 271 466 b 353 466 428 388 428 265 l 428 256 b 428 133 353 55 271 55 z"},"d":{"x_min":0,"x_max":571,"ha":571,"o":"m 256 -10 b 338 -10 390 41 425 100 l 425 0 l 497 0 l 497 722 l 425 722 l 425 424 b 391 481 339 531 256 531 b 150 531 48 438 48 265 l 48 255 b 48 81 150 -10 256 -10 z m 271 55 b 190 55 122 130 122 257 l 122 265 b 122 393 188 466 271 466 b 353 466 428 388 428 265 l 428 256 b 428 133 353 55 271 55 z"},"1":{"x_min":0,"x_max":316,"ha":316,"o":"m 153 0 l 227 0 l 227 704 l 171 704 l 26 649 l 39 584 l 153 624 z"},"5":{"x_min":0,"x_max":528,"ha":528,"o":"m 249 -11 b 381 -11 478 82 478 218 l 478 221 b 478 358 381 432 262 432 b 215 432 182 421 149 407 l 163 630 l 448 630 l 448 700 l 98 700 l 80 365 l 128 332 b 162 350 200 364 250 364 b 337 364 402 310 402 218 l 402 215 b 402 123 339 58 250 58 b 190 58 136 88 89 132 l 44 76 b 96 26 168 -11 249 -11 z"}}}
